<svg width="252" height="291" viewBox="0 0 252 291" fill="none" xmlns="http://www.w3.org/2000/svg">
<path fill-rule="evenodd" clip-rule="evenodd" d="M251.981 4.67224C252.177 12.2423 250.872 19.5524 248.065 26.6008C233.851 60.2487 217.144 92.6201 197.942 123.713C177.502 156.678 155.833 188.788 132.94 220.042C128.653 221.734 126.042 220.428 125.108 216.127C125.154 213.732 126.198 211.904 128.241 210.645C123.083 204.945 117.339 199.984 111.011 195.764C90.3216 226.966 69.4361 258.031 48.358 288.961C40.4622 291.794 36.8063 289.185 37.3937 281.129C41.0198 242.319 42.5861 203.421 42.0927 164.438C28.5346 165.711 14.9592 165.973 1.36815 165.221C-0.879536 161.67 -0.357948 158.537 2.93448 155.823C1.34152 154.18 1.07994 152.352 2.15131 150.341C65.1005 102.026 130.626 57.3855 198.726 16.4197C209.839 10.3408 221.326 5.11864 233.185 0.756417C240.334 -1.001 246.599 0.303749 251.981 4.67224Z" fill="#DBEBFF"/>
<path fill-rule="evenodd" clip-rule="evenodd" d="M237.885 18.7692C238.735 18.8632 239.257 19.3848 239.451 20.3356C230.621 41.1254 220.962 61.4877 210.474 81.4224C186.064 122.42 160.48 162.622 133.724 202.03C125.518 196.438 118.991 189.389 114.145 180.884C111.533 180.363 108.924 179.84 106.313 179.318C100.823 174.221 94.5576 170.305 87.517 167.571C137.672 117.937 187.795 68.3373 237.885 18.7692Z" fill="#172B35"/>
<path fill-rule="evenodd" clip-rule="evenodd" d="M53.0578 233.356C51.5683 231.134 51.0467 228.524 51.4915 225.525C52.176 204.635 52.4376 183.749 52.2747 162.872C50.6394 161.113 49.5963 159.025 49.142 156.606C35.9347 155.546 22.6209 155.286 9.20062 155.823C72.3237 110.158 137.065 66.8226 203.425 25.8177C210.546 21.7218 217.856 18.5891 225.354 16.4197C177.885 61.801 131.417 108.269 85.9508 155.823C81.6026 155.926 78.21 157.753 75.7696 161.305C66.143 184.703 58.5713 208.721 53.0578 233.356Z" fill="#172B35"/>
<path fill-rule="evenodd" clip-rule="evenodd" d="M103.18 187.933C86.372 211.811 70.4471 236.351 55.4073 261.55C62.1425 233.505 70.4957 205.833 80.4685 178.535C82.1116 176.942 83.9395 176.68 85.9507 177.752C91.7367 181.163 97.4804 184.557 103.18 187.933Z" fill="#172B35"/>
</svg>
