<svg width="301" height="301" viewBox="0 0 301 301" fill="none" xmlns="http://www.w3.org/2000/svg">
<g id="Frame 3">
<rect width="301" height="301" fill="white"/>
<g id="Group 330">
<g id="Group">
<path id="Vector" fill-rule="evenodd" clip-rule="evenodd" d="M275.981 10.6722C276.177 18.2423 274.872 25.5524 272.065 32.6008C257.851 66.2487 241.144 98.6201 221.942 129.713C201.502 162.678 179.833 194.788 156.94 226.042C152.653 227.734 150.042 226.428 149.108 222.127C149.154 219.732 150.198 217.904 152.241 216.645C147.083 210.945 141.339 205.984 135.011 201.764C114.322 232.966 93.4361 264.031 72.358 294.961C64.4622 297.794 60.8063 295.185 61.3937 287.129C65.0198 248.319 66.5861 209.421 66.0927 170.438C52.5346 171.711 38.9592 171.973 25.3681 171.221C23.1205 167.67 23.6421 164.537 26.9345 161.823C25.3415 160.18 25.0799 158.352 26.1513 156.341C89.1005 108.026 154.626 63.3855 222.726 22.4197C233.839 16.3408 245.326 11.1186 257.185 6.75642C264.334 4.999 270.599 6.30375 275.981 10.6722Z" fill="#01161E"/>
</g>
<g id="Group_2">
<path id="Vector_2" fill-rule="evenodd" clip-rule="evenodd" d="M261.885 24.7693C262.735 24.8632 263.257 25.3848 263.451 26.3356C254.622 47.1255 244.962 67.4878 234.474 87.4224C210.064 128.42 184.48 168.623 157.724 208.03C149.518 202.438 142.991 195.39 138.145 186.884C135.534 186.363 132.924 185.84 130.313 185.318C124.823 180.221 118.558 176.305 111.517 173.571C161.672 123.937 211.795 74.3373 261.885 24.7693Z" fill="#F4F9FF"/>
</g>
<g id="Group_3">
<path id="Vector_3" fill-rule="evenodd" clip-rule="evenodd" d="M77.0578 239.356C75.5683 237.134 75.0467 234.524 75.4915 231.525C76.176 210.635 76.4376 189.749 76.2747 168.872C74.6394 167.113 73.5963 165.025 73.142 162.606C59.9347 161.546 46.6209 161.286 33.2006 161.823C96.3237 116.158 161.065 72.8226 227.425 31.8177C234.546 27.7218 241.856 24.5891 249.354 22.4197C201.885 67.801 155.417 114.269 109.951 161.823C105.603 161.926 102.21 163.753 99.7696 167.305C90.143 190.703 82.5713 214.721 77.0578 239.356Z" fill="#F4F9FF"/>
</g>
<g id="Group_4">
<path id="Vector_4" fill-rule="evenodd" clip-rule="evenodd" d="M127.18 193.933C110.372 217.811 94.4471 242.351 79.4073 267.55C86.1425 239.505 94.4957 211.833 104.469 184.535C106.112 182.942 107.94 182.68 109.951 183.752C115.737 187.163 121.48 190.557 127.18 193.933Z" fill="#F4F9FF"/>
</g>
</g>
</g>
</svg>
